<svg width="39" height="25" viewBox="0 0 39 25" fill="none" xmlns="http://www.w3.org/2000/svg">
<path d="M38.0554 10.9435L31.5094 4.67949C24.9892 -1.55983 14.4192 -1.55983 7.89905 4.67949L1.353 10.9435C0.740855 11.5293 0.740855 12.479 1.353 13.0648L7.89898 19.3288C14.4192 25.5681 24.9892 25.5681 31.5093 19.3288L38.0553 13.0648C38.6675 12.479 38.6675 11.5293 38.0554 10.9435ZM29.2926 17.2075C23.9968 22.2752 15.4117 22.2752 10.1159 17.2075L4.67823 12.0042L10.1158 6.80082C15.4116 1.73312 23.9967 1.73312 29.2925 6.80082L34.7302 12.0042L29.2926 17.2075Z" fill="#666666"/>
<path d="M19.7042 4.50413C15.3758 4.50413 11.8665 7.86218 11.8665 12.0041C11.8665 16.1461 15.3758 19.5042 19.7042 19.5042C24.0325 19.5042 27.5418 16.146 27.5418 12.0041C27.5418 7.86225 24.0325 4.50413 19.7042 4.50413ZM19.7042 16.5041C17.1073 16.5041 15.0016 14.4892 15.0016 12.0041C15.0016 9.5191 17.1073 7.50415 19.7042 7.50415C22.3011 7.50415 24.4068 9.5191 24.4068 12.0041C24.4068 14.4892 22.3011 16.5041 19.7042 16.5041Z" fill="#666666"/>
</svg>
