<svg width="36" height="36" viewBox="0 0 36 35" fill="none" xmlns="http://www.w3.org/2000/svg">
<path d="M35.3953 15.2022L19.2433 0.484557C18.5344 -0.161542 17.4653 -0.161472 16.7566 0.484487L0.604548 15.2023C0.0366358 15.7197 -0.150957 16.5171 0.126495 17.2335C0.404017 17.9499 1.07972 18.4128 1.84802 18.4128H4.42778V33.1587C4.42778 33.7434 4.90182 34.2174 5.48647 34.2174H14.3398C14.9244 34.2174 15.3985 33.7435 15.3985 33.1587V24.2055H20.6017V33.1588C20.6017 33.7435 21.0758 34.2175 21.6604 34.2175H30.5133C31.0979 34.2175 31.572 33.7435 31.572 33.1588V18.4128H34.1522C34.9204 18.4128 35.5962 17.9498 35.8737 17.2335C36.1508 16.517 35.9633 15.7197 35.3953 15.2022Z" fill="white"/>
<path d="M31.2954 2.1132H24.1855L32.3541 9.54071V3.17182C32.3541 2.58718 31.8801 2.1132 31.2954 2.1132Z" fill="white"/>
</svg>
