<svg width="36" height="24" viewBox="0 0 36 24" fill="none" xmlns="http://www.w3.org/2000/svg">
<path d="M35.5602 10.939L29.2963 4.67336C23.0684 -1.55779 12.9316 -1.55779 6.70372 4.67336L0.439848 10.939C-0.146616 11.5257 -0.146616 12.474 0.439848 13.0606L6.70372 19.3263C9.81766 22.4411 13.9081 24 18 24C22.0919 24 26.1823 22.4411 29.2962 19.3263L35.5601 13.0606C36.1466 12.474 36.1466 11.5257 35.5602 10.939ZM18 19.5018C13.8646 19.5018 10.5001 16.1364 10.5001 11.9998C10.5001 7.86317 13.8646 4.49774 18 4.49774C22.1354 4.49774 25.4998 7.86317 25.4998 11.9998C25.4998 16.1364 22.1354 19.5018 18 19.5018Z" fill="white"/>
<path d="M18 7.49864C15.519 7.49864 13.5001 9.51821 13.5001 11.9998C13.5001 14.4815 15.519 16.5011 18 16.5011C20.4809 16.5011 22.4999 14.4815 22.4999 11.9998C22.4999 9.51821 20.481 7.49864 18 7.49864Z" fill="white"/>
</svg>
