<svg width="36" height="24" viewBox="0 0 36 24" fill="none" xmlns="http://www.w3.org/2000/svg">
<path d="M35.5607 10.9397L29.2967 4.67787C23.0574 -1.55929 12.9426 -1.55929 6.7034 4.67787L0.43933 10.9397C-0.146443 11.5253 -0.146443 12.4747 0.43933 13.0603L6.70333 19.3221C12.9426 25.5593 23.0574 25.5593 29.2966 19.3221L35.5606 13.0603C36.1465 12.4747 36.1465 11.5253 35.5607 10.9397ZM27.1754 17.2015C22.1077 22.2675 13.8924 22.2675 8.82473 17.2015L3.62132 12L8.82466 6.79846C13.8924 1.73252 22.1076 1.73252 27.1753 6.79846L32.3787 12L27.1754 17.2015Z" fill="white"/>
<path d="M18 4.50257C13.8581 4.50257 10.5 7.85946 10.5 12C10.5 16.1405 13.8581 19.4974 18 19.4974C22.1419 19.4974 25.5 16.1405 25.5 12C25.5 7.85953 22.1419 4.50257 18 4.50257ZM18 16.4984C15.515 16.4984 13.5 14.4842 13.5 12C13.5 9.5158 15.515 7.50155 18 7.50155C20.4851 7.50155 22.5 9.5158 22.5 12C22.5 14.4842 20.4851 16.4984 18 16.4984Z" fill="white"/>
</svg>
